<?xml version="1.0" standalone="no"?>
<!DOCTYPE svg PUBLIC "-//W3C//DTD SVG 20010904//EN"
 "http://www.w3.org/TR/2001/REC-SVG-20010904/DTD/svg10.dtd">
<svg version="1.0" xmlns="http://www.w3.org/2000/svg"
 width="451.000000pt" height="380.000000pt" viewBox="0 0 451.000000 380.000000"
 preserveAspectRatio="xMidYMid meet">

<g transform="translate(0.000000,380.000000) scale(0.100000,-0.100000)"
fill="#000000" stroke="none">
<path d="M1838 2800 c-75 -22 -112 -76 -131 -188 -7 -44 -17 -71 -29 -80 -24
-18 -24 -68 1 -81 13 -8 21 -27 26 -63 4 -29 17 -86 30 -125 13 -40 21 -73 19
-73 -7 0 -82 156 -117 246 -20 50 -54 145 -77 210 -22 66 -47 124 -55 130 -28
21 -155 -16 -155 -45 0 -4 23 -56 50 -115 28 -58 53 -120 57 -137 l6 -32 -59
7 c-146 17 -145 16 -159 50 -7 17 -21 69 -30 116 -25 128 -39 172 -53 178 -7
2 -43 -5 -79 -17 -64 -21 -202 -46 -381 -70 -104 -13 -136 -28 -140 -63 -5
-43 24 -52 125 -38 46 7 86 11 88 8 2 -2 13 -57 24 -123 25 -147 86 -406 101
-435 14 -26 57 -45 123 -54 58 -9 67 5 39 61 -36 72 -79 239 -107 418 -8 55
-18 112 -21 127 -5 25 -3 27 43 35 26 4 52 8 57 8 13 0 66 -187 59 -213 -3
-15 2 -33 14 -50 10 -15 41 -90 67 -167 26 -77 59 -157 72 -178 23 -35 28 -38
57 -31 108 23 126 46 83 108 -21 32 -68 142 -90 214 -7 22 -6 23 41 17 26 -4
76 -9 111 -13 l63 -7 50 -115 c59 -136 106 -218 132 -226 23 -7 127 43 127 62
0 20 6 18 47 -13 32 -25 45 -28 107 -28 61 0 81 5 140 35 81 40 186 135 186
168 0 27 -34 37 -74 22 -15 -5 -51 -35 -80 -65 -45 -48 -57 -55 -89 -55 -95 0
-169 93 -192 240 -3 25 -8 52 -11 61 -4 13 13 15 139 11 141 -4 144 -4 172 21
22 18 29 33 29 59 0 82 -114 236 -206 278 -45 20 -103 24 -150 10z m121 -134
c37 -34 91 -104 91 -118 0 -9 -73 -10 -147 -2 l-53 7 0 43 c0 46 15 95 32 105
16 10 39 0 77 -35z"/>
<path d="M2998 2440 c-22 -25 -22 -34 -2 -51 31 -26 2 -289 -35 -323 -24 -21
-47 -12 -128 49 -61 45 -68 54 -64 83 3 19 -19 42 -40 42 -26 0 -35 -21 -15
-36 10 -7 13 -15 7 -18 -5 -4 -15 3 -21 14 -14 27 -32 26 -28 -2 2 -13 12 -27
24 -32 25 -11 98 -129 152 -246 48 -103 42 -111 -53 -79 l-64 21 -65 -30 c-55
-26 -66 -35 -66 -56 0 -14 4 -27 9 -31 6 -3 22 -45 37 -93 14 -48 44 -132 66
-187 49 -124 223 -466 245 -482 40 -30 153 -1 153 40 0 11 -11 35 -25 53 -30
39 -125 213 -125 228 0 6 32 19 72 28 39 10 86 28 104 40 32 22 60 65 49 76
-3 3 -34 0 -69 -6 -35 -7 -97 -12 -138 -12 l-75 0 -28 58 c-38 78 -85 192 -85
207 0 10 10 10 48 -1 85 -26 182 -44 241 -44 51 0 62 4 96 33 43 38 43 67 0
67 -31 0 -215 39 -234 50 -20 11 247 23 320 15 l61 -7 -26 -27 c-30 -31 -53
-92 -62 -164 -5 -36 -14 -59 -30 -74 -31 -29 -30 -58 1 -79 16 -11 25 -26 25
-43 0 -42 48 -207 77 -267 33 -68 92 -129 140 -145 90 -29 247 28 354 131 62
59 75 94 39 105 -34 11 -84 -13 -131 -61 -52 -54 -98 -77 -137 -68 -79 19
-128 84 -162 220 -32 122 -41 113 113 107 151 -7 197 3 216 43 6 14 11 33 11
42 0 27 -54 133 -91 179 -46 57 -132 121 -175 129 -18 3 -34 7 -34 8 0 2 12
31 26 67 46 113 114 228 144 244 23 12 40 33 40 51 0 11 -31 2 -36 -11 -4 -8
-15 -15 -25 -15 -12 0 -16 5 -13 15 4 9 0 15 -10 15 -9 0 -16 -6 -16 -13 0
-18 -164 -167 -183 -167 -36 0 -41 26 -29 144 7 62 12 134 12 160 0 25 4 46
10 46 15 0 32 39 25 60 -10 32 -35 24 -35 -10 0 -30 -21 -42 -35 -20 -10 17
-26 0 -20 -20 3 -10 -3 -36 -13 -57 -11 -21 -34 -78 -51 -127 -36 -100 -45
-116 -72 -116 -36 0 -111 201 -113 305 -1 52 -4 60 -21 63 -11 1 -28 -7 -37
-18z m32 -24 c0 -3 -4 -8 -10 -11 -5 -3 -10 -1 -10 4 0 6 5 11 10 11 6 0 10
-2 10 -4z m37 -201 c34 -149 93 -204 152 -141 24 25 84 186 96 253 4 24 11 46
17 49 7 5 9 -5 5 -27 -32 -189 -40 -278 -28 -306 14 -35 54 -57 85 -47 33 11
91 60 132 114 20 27 42 47 47 43 5 -3 -7 -22 -27 -42 -41 -42 -105 -173 -113
-230 l-6 -40 -46 7 c-63 10 -364 9 -427 -1 l-51 -8 -6 42 c-8 57 -67 175 -118
232 -22 26 -38 47 -35 47 3 0 23 -19 44 -42 112 -125 199 -130 231 -13 6 22
11 94 12 160 1 104 2 113 10 70 5 -27 17 -81 26 -120z m407 -506 c37 -25 116
-126 116 -147 0 -12 -11 -14 -67 -9 -38 4 -83 7 -100 7 l-33 0 0 63 c0 62 18
107 42 107 7 0 26 -9 42 -21z"/>
<path d="M1880 1938 c-54 -12 -77 -30 -85 -69 -4 -16 -11 -31 -16 -34 -13 -9
-10 -146 5 -238 15 -94 14 -95 -75 -72 -62 15 -124 13 -176 -6 -41 -15 -30
-52 27 -93 113 -81 163 -240 101 -318 -40 -48 -156 -11 -212 67 -65 91 -102
273 -81 397 20 116 58 161 154 183 55 12 75 31 64 60 -5 15 -14 17 -56 12 -74
-9 -144 -44 -194 -97 -81 -87 -118 -185 -117 -319 1 -278 162 -455 382 -420
147 23 255 147 235 270 -7 46 -37 109 -60 128 -24 20 -19 31 12 31 26 0 28 -4
55 -103 35 -129 95 -255 142 -296 41 -36 70 -39 151 -15 68 19 72 43 14 79
-36 23 -80 76 -80 98 0 13 30 8 108 -19 97 -34 354 -151 423 -193 50 -31 55
-32 93 -21 23 6 52 18 64 27 22 14 23 16 7 33 -14 16 -14 18 0 23 23 9 18 41
-10 67 -17 16 -38 64 -66 148 -37 116 -108 393 -125 487 -11 66 -21 78 -59 72
-48 -8 -104 -36 -116 -59 -8 -15 -7 -30 5 -57 17 -40 37 -113 32 -118 -1 -2
-23 4 -47 12 -24 9 -86 22 -139 31 -119 18 -172 37 -210 76 -47 47 -62 92 -58
178 3 74 3 75 -22 77 -14 1 -45 -3 -70 -9z m165 -392 c31 -15 82 -29 130 -35
102 -13 117 -18 113 -44 -5 -33 -76 -80 -171 -112 -75 -26 -89 -28 -97 -15
-13 20 -47 154 -56 215 -7 48 -6 49 12 33 11 -9 42 -28 69 -42z m462 -264 c22
-79 35 -141 29 -138 -6 3 -85 37 -176 76 -91 40 -166 73 -168 75 -2 2 21 11
50 20 71 23 161 71 189 101 13 13 26 21 30 17 3 -5 24 -72 46 -151z"/>
</g>
</svg>
